<svg width="14" height="20" viewBox="0 0 14 20" fill="none" xmlns="http://www.w3.org/2000/svg">
<path d="M3.66675 5V3.33333C3.66675 2.8913 3.84234 2.46738 4.1549 2.15482C4.46746 1.84226 4.89139 1.66666 5.33342 1.66666H8.66675C9.10878 1.66666 9.5327 1.84226 9.84526 2.15482C10.1578 2.46738 10.3334 2.8913 10.3334 3.33333V5M12.8334 5V16.6667C12.8334 17.1087 12.6578 17.5326 12.3453 17.8452C12.0327 18.1577 11.6088 18.3333 11.1667 18.3333H2.83341C2.39139 18.3333 1.96746 18.1577 1.6549 17.8452C1.34234 17.5326 1.16675 17.1087 1.16675 16.6667V5H12.8334Z" stroke="white" stroke-width="2" stroke-linecap="round" stroke-linejoin="round"/>
</svg>
